<mxfile host="app.diagrams.net" modified="2022-02-22T14:24:35.571Z" agent="5.0 (Windows)" etag="bFeEDXIXcx4g-ijSNSRh" version="16.6.2" type="github" pages="4">
  <diagram id="LnGdZXZKvOWajBRN3hbv" name="Page-1">
    <mxGraphModel dx="1422" dy="752" grid="1" gridSize="10" guides="1" tooltips="1" connect="1" arrows="1" fold="1" page="1" pageScale="1" pageWidth="827" pageHeight="1169" math="0" shadow="0">
      <root>
        <mxCell id="0" />
        <mxCell id="1" parent="0" />
        <mxCell id="UFvfZoVi_rqL1V4veEtx-4" value="" style="edgeStyle=orthogonalEdgeStyle;rounded=0;orthogonalLoop=1;jettySize=auto;html=1;" edge="1" parent="1" source="UFvfZoVi_rqL1V4veEtx-2" target="UFvfZoVi_rqL1V4veEtx-3">
          <mxGeometry relative="1" as="geometry" />
        </mxCell>
        <mxCell id="UFvfZoVi_rqL1V4veEtx-2" value="Tính tổng hai số" style="text;html=1;align=center;verticalAlign=middle;resizable=0;points=[];autosize=1;strokeColor=none;fillColor=none;" vertex="1" parent="1">
          <mxGeometry x="364" y="90" width="100" height="20" as="geometry" />
        </mxCell>
        <mxCell id="UFvfZoVi_rqL1V4veEtx-6" value="" style="edgeStyle=orthogonalEdgeStyle;rounded=0;orthogonalLoop=1;jettySize=auto;html=1;" edge="1" parent="1" source="UFvfZoVi_rqL1V4veEtx-3" target="UFvfZoVi_rqL1V4veEtx-5">
          <mxGeometry relative="1" as="geometry" />
        </mxCell>
        <mxCell id="UFvfZoVi_rqL1V4veEtx-3" value="Start" style="ellipse;whiteSpace=wrap;html=1;" vertex="1" parent="1">
          <mxGeometry x="331" y="160" width="166" height="80" as="geometry" />
        </mxCell>
        <mxCell id="UFvfZoVi_rqL1V4veEtx-8" value="" style="edgeStyle=orthogonalEdgeStyle;rounded=0;orthogonalLoop=1;jettySize=auto;html=1;" edge="1" parent="1" source="UFvfZoVi_rqL1V4veEtx-5" target="UFvfZoVi_rqL1V4veEtx-7">
          <mxGeometry relative="1" as="geometry" />
        </mxCell>
        <mxCell id="UFvfZoVi_rqL1V4veEtx-5" value="Input A,B" style="shape=parallelogram;perimeter=parallelogramPerimeter;whiteSpace=wrap;html=1;fixedSize=1;" vertex="1" parent="1">
          <mxGeometry x="326" y="300" width="176" height="90" as="geometry" />
        </mxCell>
        <mxCell id="UFvfZoVi_rqL1V4veEtx-10" value="" style="edgeStyle=orthogonalEdgeStyle;rounded=0;orthogonalLoop=1;jettySize=auto;html=1;" edge="1" parent="1" source="UFvfZoVi_rqL1V4veEtx-7" target="UFvfZoVi_rqL1V4veEtx-9">
          <mxGeometry relative="1" as="geometry" />
        </mxCell>
        <mxCell id="UFvfZoVi_rqL1V4veEtx-7" value="Tổng = A + B" style="whiteSpace=wrap;html=1;" vertex="1" parent="1">
          <mxGeometry x="341" y="470" width="146" height="75" as="geometry" />
        </mxCell>
        <mxCell id="UFvfZoVi_rqL1V4veEtx-12" value="" style="edgeStyle=orthogonalEdgeStyle;rounded=0;orthogonalLoop=1;jettySize=auto;html=1;" edge="1" parent="1" source="UFvfZoVi_rqL1V4veEtx-9" target="UFvfZoVi_rqL1V4veEtx-11">
          <mxGeometry relative="1" as="geometry" />
        </mxCell>
        <mxCell id="UFvfZoVi_rqL1V4veEtx-9" value="Output Tổng" style="shape=parallelogram;perimeter=parallelogramPerimeter;whiteSpace=wrap;html=1;fixedSize=1;" vertex="1" parent="1">
          <mxGeometry x="336" y="610" width="156" height="75" as="geometry" />
        </mxCell>
        <mxCell id="UFvfZoVi_rqL1V4veEtx-11" value="End" style="ellipse;whiteSpace=wrap;html=1;" vertex="1" parent="1">
          <mxGeometry x="336" y="740" width="156" height="82.5" as="geometry" />
        </mxCell>
      </root>
    </mxGraphModel>
  </diagram>
  <diagram id="8XjkyoRiHaITSuYqALaj" name="Page-2">
    <mxGraphModel dx="1422" dy="752" grid="1" gridSize="10" guides="1" tooltips="1" connect="1" arrows="1" fold="1" page="1" pageScale="1" pageWidth="827" pageHeight="1169" math="0" shadow="0">
      <root>
        <mxCell id="c5j-HbR30cF0NcB9Tzqh-0" />
        <mxCell id="c5j-HbR30cF0NcB9Tzqh-1" parent="c5j-HbR30cF0NcB9Tzqh-0" />
        <mxCell id="c5j-HbR30cF0NcB9Tzqh-2" value="Viết chương trình chuyển đổi Kg sang pounds" style="text;html=1;strokeColor=none;fillColor=none;align=center;verticalAlign=middle;whiteSpace=wrap;rounded=0;" vertex="1" parent="c5j-HbR30cF0NcB9Tzqh-1">
          <mxGeometry x="274" y="10" width="280" height="30" as="geometry" />
        </mxCell>
        <mxCell id="c5j-HbR30cF0NcB9Tzqh-3" value="1kkg = 2.204pounds" style="text;html=1;strokeColor=none;fillColor=none;align=center;verticalAlign=middle;whiteSpace=wrap;rounded=0;" vertex="1" parent="c5j-HbR30cF0NcB9Tzqh-1">
          <mxGeometry x="597" y="50" width="230" height="30" as="geometry" />
        </mxCell>
        <mxCell id="c5j-HbR30cF0NcB9Tzqh-4" value="Start" style="ellipse;whiteSpace=wrap;html=1;" vertex="1" parent="c5j-HbR30cF0NcB9Tzqh-1">
          <mxGeometry x="354" y="70" width="120" height="80" as="geometry" />
        </mxCell>
        <mxCell id="p3KDi5MOuZ4TUSwk-yyr-0" value="Input A" style="shape=parallelogram;perimeter=parallelogramPerimeter;whiteSpace=wrap;html=1;fixedSize=1;" vertex="1" parent="c5j-HbR30cF0NcB9Tzqh-1">
          <mxGeometry x="354" y="200" width="120" height="60" as="geometry" />
        </mxCell>
        <mxCell id="b6CqpZ4039MHBC_mtBaa-0" value="C = A*2.204" style="rounded=0;whiteSpace=wrap;html=1;" vertex="1" parent="c5j-HbR30cF0NcB9Tzqh-1">
          <mxGeometry x="350" y="310" width="120" height="60" as="geometry" />
        </mxCell>
        <mxCell id="dtqu7mU8nzLyQqTrVTS4-1" value="Output" style="shape=parallelogram;perimeter=parallelogramPerimeter;whiteSpace=wrap;html=1;fixedSize=1;" vertex="1" parent="c5j-HbR30cF0NcB9Tzqh-1">
          <mxGeometry x="350" y="420" width="120" height="60" as="geometry" />
        </mxCell>
        <mxCell id="dtqu7mU8nzLyQqTrVTS4-3" value="End" style="ellipse;whiteSpace=wrap;html=1;" vertex="1" parent="c5j-HbR30cF0NcB9Tzqh-1">
          <mxGeometry x="350" y="530" width="120" height="80" as="geometry" />
        </mxCell>
        <mxCell id="dtqu7mU8nzLyQqTrVTS4-4" value="" style="endArrow=classic;html=1;rounded=0;entryX=0.5;entryY=0;entryDx=0;entryDy=0;exitX=0.5;exitY=1;exitDx=0;exitDy=0;" edge="1" parent="c5j-HbR30cF0NcB9Tzqh-1" source="c5j-HbR30cF0NcB9Tzqh-4" target="p3KDi5MOuZ4TUSwk-yyr-0">
          <mxGeometry width="50" height="50" relative="1" as="geometry">
            <mxPoint x="460" y="280" as="sourcePoint" />
            <mxPoint x="440" y="340" as="targetPoint" />
          </mxGeometry>
        </mxCell>
        <mxCell id="dtqu7mU8nzLyQqTrVTS4-5" value="" style="endArrow=classic;html=1;rounded=0;entryX=0.5;entryY=0;entryDx=0;entryDy=0;exitX=0.5;exitY=1;exitDx=0;exitDy=0;" edge="1" parent="c5j-HbR30cF0NcB9Tzqh-1">
          <mxGeometry width="50" height="50" relative="1" as="geometry">
            <mxPoint x="413" y="260" as="sourcePoint" />
            <mxPoint x="413" y="310" as="targetPoint" />
          </mxGeometry>
        </mxCell>
        <mxCell id="dtqu7mU8nzLyQqTrVTS4-6" value="" style="endArrow=classic;html=1;rounded=0;entryX=0.5;entryY=0;entryDx=0;entryDy=0;exitX=0.5;exitY=1;exitDx=0;exitDy=0;" edge="1" parent="c5j-HbR30cF0NcB9Tzqh-1">
          <mxGeometry width="50" height="50" relative="1" as="geometry">
            <mxPoint x="409.5" y="370" as="sourcePoint" />
            <mxPoint x="409.5" y="420" as="targetPoint" />
          </mxGeometry>
        </mxCell>
        <mxCell id="dtqu7mU8nzLyQqTrVTS4-7" value="" style="endArrow=classic;html=1;rounded=0;entryX=0.5;entryY=0;entryDx=0;entryDy=0;exitX=0.5;exitY=1;exitDx=0;exitDy=0;" edge="1" parent="c5j-HbR30cF0NcB9Tzqh-1">
          <mxGeometry width="50" height="50" relative="1" as="geometry">
            <mxPoint x="409.5" y="480" as="sourcePoint" />
            <mxPoint x="409.5" y="530" as="targetPoint" />
          </mxGeometry>
        </mxCell>
      </root>
    </mxGraphModel>
  </diagram>
  <diagram id="TTu62EQpOB-_47dU-JER" name="Page-3">
    <mxGraphModel dx="1422" dy="752" grid="1" gridSize="10" guides="1" tooltips="1" connect="1" arrows="1" fold="1" page="1" pageScale="1" pageWidth="827" pageHeight="1169" math="0" shadow="0">
      <root>
        <mxCell id="I8sLqsSswOBDQ7FUbeVv-0" />
        <mxCell id="I8sLqsSswOBDQ7FUbeVv-1" parent="I8sLqsSswOBDQ7FUbeVv-0" />
        <mxCell id="I8sLqsSswOBDQ7FUbeVv-3" value="Một học viên ở CodeGym sẽ bị report nếu có mặt ít hơn 80% tổng số buổi học. Viết chương trình nhập vào tổng số buổi học và số buổi học viên tham gia. Nếu học viên tham gia ít hơn 80% thì in ra &quot;bị report&quot;, nếu không thì in ra &quot;Không bị report&quot;.&lt;br&gt;" style="text;html=1;strokeColor=none;fillColor=none;align=center;verticalAlign=middle;whiteSpace=wrap;rounded=0;" vertex="1" parent="I8sLqsSswOBDQ7FUbeVv-1">
          <mxGeometry x="80" width="630" height="80" as="geometry" />
        </mxCell>
        <mxCell id="I8sLqsSswOBDQ7FUbeVv-6" value="" style="edgeStyle=orthogonalEdgeStyle;rounded=0;orthogonalLoop=1;jettySize=auto;html=1;" edge="1" parent="I8sLqsSswOBDQ7FUbeVv-1" source="I8sLqsSswOBDQ7FUbeVv-4" target="I8sLqsSswOBDQ7FUbeVv-5">
          <mxGeometry relative="1" as="geometry" />
        </mxCell>
        <mxCell id="I8sLqsSswOBDQ7FUbeVv-4" value="Start" style="ellipse;whiteSpace=wrap;html=1;" vertex="1" parent="I8sLqsSswOBDQ7FUbeVv-1">
          <mxGeometry x="340" y="70" width="120" height="80" as="geometry" />
        </mxCell>
        <mxCell id="I8sLqsSswOBDQ7FUbeVv-8" value="" style="edgeStyle=orthogonalEdgeStyle;rounded=0;orthogonalLoop=1;jettySize=auto;html=1;" edge="1" parent="I8sLqsSswOBDQ7FUbeVv-1" source="I8sLqsSswOBDQ7FUbeVv-5" target="I8sLqsSswOBDQ7FUbeVv-7">
          <mxGeometry relative="1" as="geometry" />
        </mxCell>
        <mxCell id="I8sLqsSswOBDQ7FUbeVv-5" value="InputA,B" style="shape=parallelogram;perimeter=parallelogramPerimeter;whiteSpace=wrap;html=1;fixedSize=1;" vertex="1" parent="I8sLqsSswOBDQ7FUbeVv-1">
          <mxGeometry x="340" y="200" width="120" height="60" as="geometry" />
        </mxCell>
        <mxCell id="I8sLqsSswOBDQ7FUbeVv-7" value="A/B" style="rhombus;whiteSpace=wrap;html=1;" vertex="1" parent="I8sLqsSswOBDQ7FUbeVv-1">
          <mxGeometry x="360" y="320" width="80" height="80" as="geometry" />
        </mxCell>
        <mxCell id="I8sLqsSswOBDQ7FUbeVv-9" value="A/B&amp;lt;0.8Ko dat" style="shape=note;whiteSpace=wrap;html=1;backgroundOutline=1;darkOpacity=0.05;" vertex="1" parent="I8sLqsSswOBDQ7FUbeVv-1">
          <mxGeometry x="200" y="450" width="80" height="100" as="geometry" />
        </mxCell>
        <mxCell id="I8sLqsSswOBDQ7FUbeVv-10" value="A/B&amp;gt;=0.8 Dat" style="shape=note;whiteSpace=wrap;html=1;backgroundOutline=1;darkOpacity=0.05;" vertex="1" parent="I8sLqsSswOBDQ7FUbeVv-1">
          <mxGeometry x="530" y="440" width="80" height="100" as="geometry" />
        </mxCell>
        <mxCell id="I8sLqsSswOBDQ7FUbeVv-11" value="Output" style="ellipse;whiteSpace=wrap;html=1;" vertex="1" parent="I8sLqsSswOBDQ7FUbeVv-1">
          <mxGeometry x="340" y="640" width="120" height="60" as="geometry" />
        </mxCell>
        <mxCell id="I8sLqsSswOBDQ7FUbeVv-13" value="" style="endArrow=classic;html=1;rounded=0;entryX=1;entryY=0.5;entryDx=0;entryDy=0;exitX=0.5;exitY=1;exitDx=0;exitDy=0;exitPerimeter=0;" edge="1" parent="I8sLqsSswOBDQ7FUbeVv-1" source="I8sLqsSswOBDQ7FUbeVv-10" target="I8sLqsSswOBDQ7FUbeVv-11">
          <mxGeometry width="50" height="50" relative="1" as="geometry">
            <mxPoint x="545" y="650" as="sourcePoint" />
            <mxPoint x="595" y="600" as="targetPoint" />
            <Array as="points">
              <mxPoint x="570" y="670" />
            </Array>
          </mxGeometry>
        </mxCell>
        <mxCell id="I8sLqsSswOBDQ7FUbeVv-14" value="" style="endArrow=classic;html=1;rounded=0;entryX=0;entryY=0.5;entryDx=0;entryDy=0;exitX=0.5;exitY=1;exitDx=0;exitDy=0;exitPerimeter=0;" edge="1" parent="I8sLqsSswOBDQ7FUbeVv-1" source="I8sLqsSswOBDQ7FUbeVv-9" target="I8sLqsSswOBDQ7FUbeVv-11">
          <mxGeometry width="50" height="50" relative="1" as="geometry">
            <mxPoint x="390" y="410" as="sourcePoint" />
            <mxPoint x="440" y="360" as="targetPoint" />
            <Array as="points">
              <mxPoint x="240" y="670" />
            </Array>
          </mxGeometry>
        </mxCell>
        <mxCell id="I8sLqsSswOBDQ7FUbeVv-15" value="" style="endArrow=classic;html=1;rounded=0;entryX=0.5;entryY=0;entryDx=0;entryDy=0;exitX=1;exitY=0.5;exitDx=0;exitDy=0;entryPerimeter=0;" edge="1" parent="I8sLqsSswOBDQ7FUbeVv-1" source="I8sLqsSswOBDQ7FUbeVv-7" target="I8sLqsSswOBDQ7FUbeVv-10">
          <mxGeometry width="50" height="50" relative="1" as="geometry">
            <mxPoint x="420" y="420" as="sourcePoint" />
            <mxPoint x="520" y="540" as="targetPoint" />
            <Array as="points">
              <mxPoint x="570" y="360" />
            </Array>
          </mxGeometry>
        </mxCell>
        <mxCell id="I8sLqsSswOBDQ7FUbeVv-16" value="" style="endArrow=classic;html=1;rounded=0;entryX=0.5;entryY=0;entryDx=0;entryDy=0;exitX=0;exitY=0.5;exitDx=0;exitDy=0;entryPerimeter=0;" edge="1" parent="I8sLqsSswOBDQ7FUbeVv-1" source="I8sLqsSswOBDQ7FUbeVv-7" target="I8sLqsSswOBDQ7FUbeVv-9">
          <mxGeometry width="50" height="50" relative="1" as="geometry">
            <mxPoint x="340" y="420" as="sourcePoint" />
            <mxPoint x="475" y="440" as="targetPoint" />
            <Array as="points">
              <mxPoint x="240" y="360" />
            </Array>
          </mxGeometry>
        </mxCell>
      </root>
    </mxGraphModel>
  </diagram>
  <diagram id="rEAxFukUpDBDiCU0tkBq" name="Page-4">
    <mxGraphModel dx="1422" dy="752" grid="1" gridSize="10" guides="1" tooltips="1" connect="1" arrows="1" fold="1" page="1" pageScale="1" pageWidth="827" pageHeight="1169" math="0" shadow="0">
      <root>
        <mxCell id="EzKp3bapsbu-u6XwZe8u-0" />
        <mxCell id="EzKp3bapsbu-u6XwZe8u-1" parent="EzKp3bapsbu-u6XwZe8u-0" />
        <mxCell id="EzKp3bapsbu-u6XwZe8u-4" value="" style="edgeStyle=orthogonalEdgeStyle;rounded=0;orthogonalLoop=1;jettySize=auto;html=1;" edge="1" parent="EzKp3bapsbu-u6XwZe8u-1" source="EzKp3bapsbu-u6XwZe8u-2" target="EzKp3bapsbu-u6XwZe8u-3">
          <mxGeometry relative="1" as="geometry" />
        </mxCell>
        <mxCell id="EzKp3bapsbu-u6XwZe8u-2" value="Giải phương trình ax+b=0" style="text;html=1;strokeColor=none;fillColor=none;align=center;verticalAlign=middle;whiteSpace=wrap;rounded=0;" vertex="1" parent="EzKp3bapsbu-u6XwZe8u-1">
          <mxGeometry x="240" y="10" width="300" height="30" as="geometry" />
        </mxCell>
        <mxCell id="EzKp3bapsbu-u6XwZe8u-6" value="" style="edgeStyle=orthogonalEdgeStyle;rounded=0;orthogonalLoop=1;jettySize=auto;html=1;" edge="1" parent="EzKp3bapsbu-u6XwZe8u-1" source="EzKp3bapsbu-u6XwZe8u-3" target="EzKp3bapsbu-u6XwZe8u-5">
          <mxGeometry relative="1" as="geometry" />
        </mxCell>
        <mxCell id="EzKp3bapsbu-u6XwZe8u-3" value="Start" style="ellipse;whiteSpace=wrap;html=1;" vertex="1" parent="EzKp3bapsbu-u6XwZe8u-1">
          <mxGeometry x="330" y="105" width="120" height="60" as="geometry" />
        </mxCell>
        <mxCell id="EzKp3bapsbu-u6XwZe8u-12" value="" style="edgeStyle=orthogonalEdgeStyle;rounded=0;orthogonalLoop=1;jettySize=auto;html=1;" edge="1" parent="EzKp3bapsbu-u6XwZe8u-1" source="EzKp3bapsbu-u6XwZe8u-5" target="EzKp3bapsbu-u6XwZe8u-11">
          <mxGeometry relative="1" as="geometry" />
        </mxCell>
        <mxCell id="EzKp3bapsbu-u6XwZe8u-5" value="Nhập a, b" style="shape=parallelogram;perimeter=parallelogramPerimeter;whiteSpace=wrap;html=1;fixedSize=1;" vertex="1" parent="EzKp3bapsbu-u6XwZe8u-1">
          <mxGeometry x="330" y="245" width="120" height="60" as="geometry" />
        </mxCell>
        <mxCell id="EzKp3bapsbu-u6XwZe8u-11" value="a=0" style="rhombus;whiteSpace=wrap;html=1;" vertex="1" parent="EzKp3bapsbu-u6XwZe8u-1">
          <mxGeometry x="350" y="375" width="80" height="80" as="geometry" />
        </mxCell>
        <mxCell id="EzKp3bapsbu-u6XwZe8u-13" value="b=0&lt;br&gt;Pt vô số nghiệm" style="shape=parallelogram;perimeter=parallelogramPerimeter;whiteSpace=wrap;html=1;fixedSize=1;" vertex="1" parent="EzKp3bapsbu-u6XwZe8u-1">
          <mxGeometry x="160" y="520" width="120" height="60" as="geometry" />
        </mxCell>
        <mxCell id="EzKp3bapsbu-u6XwZe8u-15" value="Yes" style="text;html=1;strokeColor=none;fillColor=none;align=center;verticalAlign=middle;whiteSpace=wrap;rounded=0;" vertex="1" parent="EzKp3bapsbu-u6XwZe8u-1">
          <mxGeometry x="240" y="390" width="60" height="30" as="geometry" />
        </mxCell>
        <mxCell id="EzKp3bapsbu-u6XwZe8u-16" value="No" style="text;html=1;strokeColor=none;fillColor=none;align=center;verticalAlign=middle;whiteSpace=wrap;rounded=0;" vertex="1" parent="EzKp3bapsbu-u6XwZe8u-1">
          <mxGeometry x="480" y="390" width="60" height="30" as="geometry" />
        </mxCell>
        <mxCell id="EzKp3bapsbu-u6XwZe8u-17" value="b=0&lt;br&gt;Pt vô số nghiệm" style="shape=parallelogram;perimeter=parallelogramPerimeter;whiteSpace=wrap;html=1;fixedSize=1;" vertex="1" parent="EzKp3bapsbu-u6XwZe8u-1">
          <mxGeometry x="330" y="520" width="120" height="60" as="geometry" />
        </mxCell>
        <mxCell id="EzKp3bapsbu-u6XwZe8u-18" value="Pt có 1 nghiệm x = -b/a" style="shape=parallelogram;perimeter=parallelogramPerimeter;whiteSpace=wrap;html=1;fixedSize=1;" vertex="1" parent="EzKp3bapsbu-u6XwZe8u-1">
          <mxGeometry x="500" y="520" width="160" height="60" as="geometry" />
        </mxCell>
        <mxCell id="EzKp3bapsbu-u6XwZe8u-19" value="" style="endArrow=classic;html=1;rounded=0;exitX=1;exitY=0.5;exitDx=0;exitDy=0;entryX=0.5;entryY=0;entryDx=0;entryDy=0;" edge="1" parent="EzKp3bapsbu-u6XwZe8u-1" source="EzKp3bapsbu-u6XwZe8u-11" target="EzKp3bapsbu-u6XwZe8u-18">
          <mxGeometry width="50" height="50" relative="1" as="geometry">
            <mxPoint x="580" y="480" as="sourcePoint" />
            <mxPoint x="670" y="440" as="targetPoint" />
            <Array as="points">
              <mxPoint x="580" y="415" />
            </Array>
          </mxGeometry>
        </mxCell>
        <mxCell id="EzKp3bapsbu-u6XwZe8u-22" value="" style="endArrow=classic;html=1;rounded=0;exitX=0;exitY=0.5;exitDx=0;exitDy=0;entryX=0.5;entryY=0;entryDx=0;entryDy=0;" edge="1" parent="EzKp3bapsbu-u6XwZe8u-1" source="EzKp3bapsbu-u6XwZe8u-11" target="EzKp3bapsbu-u6XwZe8u-13">
          <mxGeometry width="50" height="50" relative="1" as="geometry">
            <mxPoint x="390" y="440" as="sourcePoint" />
            <mxPoint x="150" y="480" as="targetPoint" />
            <Array as="points">
              <mxPoint x="220" y="420" />
            </Array>
          </mxGeometry>
        </mxCell>
        <mxCell id="EzKp3bapsbu-u6XwZe8u-23" value="" style="endArrow=classic;html=1;rounded=0;entryX=0.5;entryY=0;entryDx=0;entryDy=0;exitX=0.5;exitY=1;exitDx=0;exitDy=0;" edge="1" parent="EzKp3bapsbu-u6XwZe8u-1" source="EzKp3bapsbu-u6XwZe8u-11" target="EzKp3bapsbu-u6XwZe8u-17">
          <mxGeometry width="50" height="50" relative="1" as="geometry">
            <mxPoint x="370" y="510" as="sourcePoint" />
            <mxPoint x="420" y="460" as="targetPoint" />
          </mxGeometry>
        </mxCell>
        <mxCell id="EzKp3bapsbu-u6XwZe8u-24" value="End" style="ellipse;whiteSpace=wrap;html=1;" vertex="1" parent="EzKp3bapsbu-u6XwZe8u-1">
          <mxGeometry x="330" y="640" width="120" height="80" as="geometry" />
        </mxCell>
        <mxCell id="EzKp3bapsbu-u6XwZe8u-25" value="Yes" style="text;html=1;strokeColor=none;fillColor=none;align=center;verticalAlign=middle;whiteSpace=wrap;rounded=0;" vertex="1" parent="EzKp3bapsbu-u6XwZe8u-1">
          <mxGeometry x="380" y="470" width="60" height="30" as="geometry" />
        </mxCell>
        <mxCell id="EzKp3bapsbu-u6XwZe8u-26" value="" style="endArrow=classic;html=1;rounded=0;exitX=0.5;exitY=1;exitDx=0;exitDy=0;" edge="1" parent="EzKp3bapsbu-u6XwZe8u-1" source="EzKp3bapsbu-u6XwZe8u-18">
          <mxGeometry width="50" height="50" relative="1" as="geometry">
            <mxPoint x="410" y="730" as="sourcePoint" />
            <mxPoint x="460" y="680" as="targetPoint" />
            <Array as="points">
              <mxPoint x="580" y="680" />
            </Array>
          </mxGeometry>
        </mxCell>
        <mxCell id="EzKp3bapsbu-u6XwZe8u-27" value="" style="endArrow=classic;html=1;rounded=0;entryX=0;entryY=0.5;entryDx=0;entryDy=0;exitX=0.433;exitY=1.033;exitDx=0;exitDy=0;exitPerimeter=0;" edge="1" parent="EzKp3bapsbu-u6XwZe8u-1" source="EzKp3bapsbu-u6XwZe8u-13" target="EzKp3bapsbu-u6XwZe8u-24">
          <mxGeometry width="50" height="50" relative="1" as="geometry">
            <mxPoint x="260" y="700" as="sourcePoint" />
            <mxPoint x="310" y="650" as="targetPoint" />
            <Array as="points">
              <mxPoint x="212" y="680" />
            </Array>
          </mxGeometry>
        </mxCell>
        <mxCell id="EzKp3bapsbu-u6XwZe8u-28" value="" style="endArrow=classic;html=1;rounded=0;entryX=0.5;entryY=0;entryDx=0;entryDy=0;exitX=0.5;exitY=1;exitDx=0;exitDy=0;" edge="1" parent="EzKp3bapsbu-u6XwZe8u-1" source="EzKp3bapsbu-u6XwZe8u-17" target="EzKp3bapsbu-u6XwZe8u-24">
          <mxGeometry width="50" height="50" relative="1" as="geometry">
            <mxPoint x="370" y="630" as="sourcePoint" />
            <mxPoint x="420" y="580" as="targetPoint" />
          </mxGeometry>
        </mxCell>
      </root>
    </mxGraphModel>
  </diagram>
</mxfile>
